<?xml version="1.0" encoding="utf-8"?>
<!-- Generator: Adobe Illustrator 18.0.0, SVG Export Plug-In . SVG Version: 6.00 Build 0)  -->
<!DOCTYPE svg PUBLIC "-//W3C//DTD SVG 1.1//EN" "http://www.w3.org/Graphics/SVG/1.1/DTD/svg11.dtd">
<svg version="1.1" id="Layer_1" xmlns="http://www.w3.org/2000/svg" xmlns:xlink="http://www.w3.org/1999/xlink" x="0px" y="0px"
	 width="1400px" height="980px" viewBox="0 0 1400 980" enable-background="new 0 0 1400 980" xml:space="preserve">
<g>
	<defs>
		<rect id="SVGID_1_" width="1400" height="980"/>
	</defs>
	<clipPath id="SVGID_2_">
		<use xlink:href="#SVGID_1_"  overflow="visible"/>
	</clipPath>
	<g clip-path="url(#SVGID_2_)">
		<g>
			<rect fill="#62A76E" width="1400" height="980"/>
		</g>
		<g>
			<circle fill="#FBB040" cx="522.4" cy="151.7" r="71.5"/>
		</g>
		<g>
			<rect x="652.1" y="564.8" fill="#4D8C56" width="756" height="42.4"/>
		</g>
		<g id="XMLID_100_">
			<path fill="#4D8C56" d="M653.9,523.9H184.2l81.4-216h11.7c3,0,5.4-2.4,5.4-5.4v-23.7h17.6h47.5c7.1,0,12.9-5.8,12.9-12.9
				c0-7.1-5.8-12.9-12.9-12.9h-47.5h-66.7l-25.3-42.8h-12.5h-40.2c-3.5,0-6.2,2.8-6.2,6.2V253h-3.4c-2.4,0-4.4,2-4.4,4.4v16.8
				c0,2.4,2,4.4,4.4,4.4h18.2v10.1v13.6c0,3,2.4,5.4,5.4,5.4h11.2l-81.4,216H63.1c-7,0-12.6,5.6-12.6,12.6v44.8c0,0,0,0,0,0v2.6
				c0,0,0,0.1,0,0.1h0c0,0,0,0,0,0c0,2.7,1.2,5.2,3,7c0,0,0.1,0.1,0.1,0.1c0.4,0.4,0.9,0.8,1.4,1.1c0.1,0.1,0.3,0.1,0.4,0.2
				c0.4,0.2,0.8,0.5,1.3,0.7c0.3,0.1,0.6,0.2,0.9,0.3c0.3,0.1,0.6,0.2,0.9,0.3c0.7,0.1,1.3,0.2,2,0.2h2.6h2v21.3h9.2h7.3h0h43.1h7.9
				h33.7c11.8,0,21.3-9.6,21.3-21.3h389.1v6.4c0,8.3,6.7,15,15,15s15-6.7,15-15v-6.4h47.3h2.6c0.7,0,1.4-0.1,2-0.2
				c0.3-0.1,0.6-0.2,0.9-0.3c0.3-0.1,0.6-0.2,0.9-0.3c0.5-0.2,0.9-0.4,1.3-0.7c0.1-0.1,0.3-0.1,0.4-0.2c0.5-0.3,1-0.7,1.4-1.1
				c0,0,0.1,0,0.1-0.1c1.8-1.8,3-4.3,3-7.1v-2.6V574v-37.5C666.5,529.5,660.8,523.9,653.9,523.9z"/>
		</g>
		<g>
			<rect y="607.2" fill="#4D8C56" width="1400" height="426.8"/>
		</g>
		<g>
			<path fill="#3E7545" d="M549.2,737.9c0,0-6.6-0.4-46.1,0s-78.4,1.7-108.2,2.3c-29.8,0.6-86.9,19.9-101.2,36.9
				c-14.3,16.9,60.7,19.5,112.1,20.8c51.4,1.3,157.8-6.5,199.9-10.4c42.1-3.9,192.5,10.7,244.4,10.5c51.9-0.1,192,9.2,223.1,0
				s97.3-18.3,73.9-33.9s-131-12.2-201-14.5c-70-2.3-161.3-13.8-216.8-13.2C673.7,737,549.2,737.9,549.2,737.9z"/>
		</g>
		<g>
			<path fill="#FBB040" d="M1030.2,723.7c0,0,1.7,7.4,0,8.7c-1.7,1.3-3.1,5.7,0.4,10.5c3.5,4.8,10.9,10.9,7,16.6
				c-3.9,5.7-10.1,7.8-9.2,12.2c0.9,4.4,7.2,8.7,16.1,9.2c8.9,0.4,13.7-4.8,17.1-6.5c3.5-1.7,16.1-7.8,19.6-17.4
				c3.5-9.6,1.3-33.1,0-44c-1.3-10.9-11.3-14-17.9-14.8c-6.5-0.9-10,0-10,0s-15.3-3.1-19.6-3.1c-4.4,0-5.7,10.4-3.5,14.8
				C1032.3,714.1,1030.2,723.7,1030.2,723.7z"/>
		</g>
		<g>
			<path fill="#EFB595" d="M822.6,689.7l12.3,8.6c0,0,16.5,4.9,33.9,8.8c17.4,3.9,57.1,4.8,75.9,6.5s75.4,14.8,82.8,14.8
				c7.4,0,12.6,1.3,15.3,0c2.6-1.3,2.6-11.2-4.4-19.1c-7-7.9-44.9-21.9-58-28.4c-13.1-6.5-28-10.9-46.9-14
				c-18.9-3.1-49.9,0.9-53.3,0c-3.5-0.9-31-9.7-39.2-16.4C832.6,643.9,822.6,689.7,822.6,689.7z"/>
		</g>
		<g>
			<path fill="#FBB040" d="M1025.6,720c0,0,1.7,7.4,0,8.7c-1.7,1.3-3.1,5.7,0.4,10.5c3.5,4.8,10.9,10.9,7,16.6s-10.1,7.8-9.2,12.2
				c0.9,4.4,7.2,8.7,16.1,9.2s13.7-4.8,17.1-6.5c3.5-1.7,16.1-7.8,19.6-17.4s1.3-33.1,0-44c-1.3-10.9-11.3-14-17.9-14.8
				c-6.5-0.9-10,0-10,0s-15.3-3.1-19.6-3.1s-5.7,10.4-3.5,14.8C1027.8,710.4,1025.6,720,1025.6,720z"/>
		</g>
		<g>
			<path fill="#FCC3A0" d="M813.6,685.9l12.3,8.6c0,0,16.5,4.9,33.9,8.8c17.4,3.9,57.1,4.8,75.9,6.5c18.7,1.7,75.4,14.8,82.8,14.8
				s12.6,1.3,15.3,0c2.6-1.3,2.6-11.2-4.4-19.1c-7-7.9-44.9-21.9-58-28.4c-13.1-6.5-28-10.9-46.9-14s-49.9,0.9-53.3,0
				c-3.5-0.9-31-9.7-39.2-16.4C823.7,640.2,813.6,685.9,813.6,685.9z"/>
		</g>
		<g>
			<path fill="#FBB040" d="M675.8,627.3l29.2-35c0,0,22.4-2.6,45.5,2.3s36.8,16.1,45.7,21.5c8.9,5.3,54,31.4,54,31.4
				s-8.3,29.7-13.1,43.9c-4.7,14.2-5.3,18.4-5.3,18.4s-124.6-33.4-151-43.5L675.8,627.3z"/>
		</g>
		<g>
			<path fill="#FCC3A0" d="M492.3,533.1c2.5-6.7,3.7-16.6-0.4-23.1c-4.3-6.7-22.4-18.1-22.4-18.1c-0.2-2.2-2.1-7.5-2.1-7.5
				c-0.8-1.6-1.3-3.1-1.8-4.4c-1.5-4.1-5.8-14-16.6-12.1c-10.8,1.9-14.4,11.9-11.2,19.4c3.2,7.5,6,8.4,6,8.4s-12.1,0-17-3.7
				c-5-3.7-6.7,6.7-11.6,7.8c0,0-0.2,4.1-3.2,6c0,0-0.2-3.9-2.2-5.4s-2.2,5.4-6.7,7.5c-4.5,2.2-4.5,2.2-4.5,2.2s6.9,12.3,16.4,20.5
				c9.5,8.2,28.2,23.7,39.7,28.7s20-0.4,25.9-5.4c5.8-5,10.6-16.6,11.6-20.3C492.1,533.5,492.2,533.3,492.3,533.1z"/>
		</g>
		<g>
			<path fill="#F1F2F2" d="M496.7,538.2l-0.5,7.3c0,0-5.4,22.2-4.4,32.4c1,10.2,7.7,24.2,24.5,34.7c16.8,10.5,53.3,18.2,69.8,20.7
				c16.5,2.5,94.7,33,94.7,33l24.2-74c0,0-19.6-9.5-32.3-14.4c-12.6-4.9-39.6-28.8-63.5-42.1c-23.9-13.3-72-36.6-98.2-23.6
				L496.7,538.2z"/>
		</g>
		<g>
			<path fill="#BABABA" d="M571.9,603.3c0.4-11.2-1.8-35.8-6-48.7c-2.3-7-5.1-12.5-8.6-16c-2.4-2.4-5.7-3.7-9.1-3.8c0,0,0,0-0.1,0
				c-0.7,0-1.4,0-2,0.1c-1,0.1-2.1,0.2-3.1,0.3c-0.6,0-1.3,0.1-1.9,0.2c-5.4,1.2-10.3,3.9-14,7.7c-1.8,1.8-3,4-3.6,6.5
				c-0.8,3.5-1.6,9.2-0.3,15.9c2.1,11.2,8.1,29.8,10.9,37.9c1.2,3.5,2.5,10.8,4,18.7c12.1,4,25.7,7.2,36.5,9.3
				C572.9,618.8,571.7,607.6,571.9,603.3z"/>
		</g>
		<g>
			<circle fill="#FBB040" cx="537.5" cy="550.5" r="28.4"/>
		</g>
		<g>
			<path fill="#FCC3A0" d="M468.7,488.7c0.3,1.2,0.6,2.4,0.7,3.2c0,0,18.1,11.4,22.4,18.1c4.2,6.5,2.9,16.4,0.4,23.1
				c-0.1,0.2-0.2,0.4-0.2,0.6c-0.5,1.7-1.8,5.1-3.6,8.8l0,0l7.8,3.1l14.8-33.3C500.6,508.9,468.7,488.7,468.7,488.7z"/>
		</g>
		<g>
			<path fill="#414042" d="M468.7,488.7c0,0,25.4,16.1,38.3,21.9c0.4-4.4-6.8-14.9-6.4-14.7c0.5,0.2,3.1,0.3,3.1,0.3
				s-1.3-0.8-4.9-4.6s-10.3-6.9-10.3-6.9l3-1.3c0,0-2.5-1.2-5.5-6.1c-3-4.9-11-18.4-19-31.1c-8-12.7-19-17.8-24.2-17.8
				c-5.2,0-9.9,1.8-9.9,1.8c-13.5-1.7-23.3,4.7-28.8,11.8c-5.5,7-8.2,11.6-10.8,14.2c-2.7,2.7-8,1.7-10.6,7.4
				c-2.7,5.7-2.1,10.2-2.7,13.7c-0.6,3.4-1.5,6.2-1.5,6.2c-2.7,0.9-9.3-1.5-9.3-1.5c0.2,4,5.5,7.2,7.2,8c1.9,4.6,2.7,10.2,2.7,10.2
				c1.9-1.9,1.5-6.6,1.5-6.6c4.4,10.2,17.9,16.7,17.9,16.7s0,0,4.5-2.2c4.5-2.2,4.7-9.1,6.7-7.5s2.2,5.4,2.2,5.4c3-1.9,3.2-6,3.2-6
				c5-1.1,6.7-11.4,11.6-7.8c5,3.7,17,3.7,17,3.7s-2.8-0.9-6-8.4c-3.2-7.5,0.4-17.5,11.2-19.4c10.8-1.9,15.1,8,16.6,12.1
				c0.5,1.3,1.1,2.8,1.8,4.4C467.3,484.4,468.1,486.5,468.7,488.7C468.7,488.7,468.7,488.7,468.7,488.7z"/>
		</g>
		<g>
			<path fill="#EFB595" d="M492,533.7c-0.5,1.7-1.8,5.1-3.6,8.8l2.6,1c0,0,3.9-10.6,4.4-16.4c0.4-5.8,1.9-13.4-6.5-20.5c0,0,0,0,0,0
				c1.2,1.2,2.2,2.4,2.9,3.4c4.2,6.5,2.9,16.4,0.4,23.1C492.2,533.3,492.1,533.5,492,533.7z"/>
		</g>
		<g>
			<path fill="#414042" d="M417.5,525c0,0,3.5-8.6,5.9-13.1c2.4-4.6,4.6-6.3,4.6-6.3s-3.3,6.2-4.3,9.7c-1.1,3.5-4.1,10.7-4.1,10.7
				L417.5,525z"/>
		</g>
		<g>
			<path fill="#FCC3A0" d="M580.8,708c-0.7-12.6-5.3-32.3-6-36.8c-0.7-4.6-9.5-62.8-9.1-74c0.4-11.2-1.8-35.8-6-48.7
				c-2.3-7-5.1-12.5-8.6-16c-2.4-2.4-5.7-3.7-9.1-3.8c0,0,0,0-0.1,0c-0.7,0-1.4,0-2,0.1c-1,0.1-2.1,0.2-3.1,0.3
				c-0.6,0-1.3,0.1-1.9,0.2c-5.4,1.2-10.3,3.9-14,7.7c-1.8,1.8-3,4-3.6,6.5c-0.8,3.5-1.6,9.2-0.3,15.9c2.1,11.2,8.1,29.8,10.9,37.9
				c2.8,8.1,6.3,36.8,10.5,46c0,0,1,22.1,2.6,36.1c1.6,14,9.3,42.1,11.8,49.1c2.5,7,4.2,21.7,4.2,21.7s-9.5,8.4-17.5,10.9
				c-8.1,2.5-21,4.6-28.4,8.1c-7.4,3.5-11.6,9.5-6,10.2c5.6,0.7,21.7-3.2,30.5-2.8c8.8,0.4,26.3-2.8,31.9-2.1
				c5.6,0.7,7.7-1.8,10.9-4.2c3.2-2.5,1.8-12.3,2.5-27C581.5,728.4,581.5,720.6,580.8,708z"/>
		</g>
		<g>
			<path fill="#B2711B" d="M1042.5,745.1c-0.2,0-0.3,0-0.5-0.1c-7.3-1.8-13.3-0.8-13.4-0.8c-1.1,0.2-2.1-0.5-2.3-1.6
				s0.5-2.1,1.6-2.3c0.3,0,6.8-1.1,15,0.8c1.1,0.3,1.7,1.3,1.5,2.4C1044.2,744.5,1043.4,745.1,1042.5,745.1z"/>
		</g>
		<g>
			<path fill="#B2711B" d="M1042.5,751.7c-0.2,0-0.3,0-0.5-0.1c-7.3-1.8-13.3-0.8-13.4-0.8c-1.1,0.2-2.1-0.5-2.3-1.6
				s0.5-2.1,1.6-2.3c0.3,0,6.8-1.1,15,0.8c1.1,0.3,1.7,1.3,1.5,2.4C1044.2,751.1,1043.4,751.7,1042.5,751.7z"/>
		</g>
		<g>
			<path fill="#B2711B" d="M1042.5,758.3c-0.2,0-0.3,0-0.5-0.1c-7.3-1.8-13.3-0.8-13.4-0.8c-1.1,0.2-2.1-0.5-2.3-1.6
				s0.5-2.1,1.6-2.3c0.3,0,6.8-1.1,15,0.8c1.1,0.3,1.7,1.3,1.5,2.4C1044.2,757.6,1043.4,758.3,1042.5,758.3z"/>
		</g>
		<g>
			<path fill="#FBB040" d="M1070,699.6c0,0,6.3,4.8,6.3,21.7c0,16.9,3.3,31.6-3.1,38.7c-6.5,7.1-12.2,8.4-16.1,12.6
				c-3.9,4.2-15.3,6.5-24.1,4.8c2.8,1.9,6.8,3.2,11.5,3.4c8.9,0.4,13.7-4.8,17.1-6.5c3.5-1.7,16.1-7.8,19.6-17.4
				c3.5-9.6,1.3-33.1,0-44C1080.3,705.3,1075.2,701.5,1070,699.6z"/>
		</g>
		<g>
			<path fill="#C47610" d="M1065.4,695.8c0,0,6.3,4.8,6.3,21.7c0,16.9,3.3,31.6-3.1,38.7c-6.5,7.1-12.2,8.4-16.1,12.6
				c-3.9,4.2-15.3,6.5-24.1,4.8c2.8,1.9,6.8,3.2,11.5,3.4c8.9,0.4,13.7-4.8,17.1-6.5c3.5-1.7,16.1-7.8,19.6-17.4
				c3.5-9.6,1.3-33.1,0-44C1075.7,701.5,1070.6,697.7,1065.4,695.8z"/>
		</g>
		<g>
			<path fill="#FCC3A0" d="M496.7,538.2l-0.5,7.3c0,0-2.3,9.4-3.6,18.8c3.6-2.9,8.2-10.9,10.8-16.4c4.4-9.3,7.6-35.7,7.6-35.7
				L496.7,538.2z"/>
		</g>
		<g>
			<path fill="#4D8C56" d="M265.9,486.1c0-75.9-61.6-137.5-137.5-137.5v0h0c-13.6,0-26.7,2-39.1,5.7l-28.8-41.1
				c-3.3-4.7-9.8-5.9-14.5-2.5c-4.7,3.3-5.9,9.8-2.5,14.5L69.2,362c-4.7,2.3-9.3,4.8-13.7,7.6l-18.9-26.9c-3.3-4.7-9.8-5.9-14.5-2.5
				c-4.7,3.3-5.9,9.8-2.5,14.5l19.2,27.3C9.4,407.1-9.1,444.4-9.1,486.1c0,75.9,61.6,137.5,137.5,137.5c12.7,0,25.1-1.7,36.8-5
				c0.6-0.2,1.2-0.3,1.9-0.5c22.4-6.6,42.5-18.7,58.6-34.8C250.5,558.4,265.9,524.1,265.9,486.1z"/>
		</g>
		<g>
			<g>
				<path fill="#4D8C56" d="M1092.9,476.6v-27.7c0-12.9-10.5-23.4-23.4-23.4h-7.9h-7.9c-12.9,0-23.4,10.5-23.4,23.4v27.7
					c-13.9,9.8-23,26.1-23,44.4c0,30,24.3,54.4,54.4,54.4c30,0,54.4-24.3,54.4-54.4C1115.9,502.7,1106.8,486.4,1092.9,476.6z
					 M1040.4,448.9c0-7.3,5.9-13.2,13.2-13.2h7.9h7.9c7.3,0,13.2,5.9,13.2,13.2v22c-6.5-2.7-13.7-4.3-21.2-4.3
					c-7.5,0-14.7,1.5-21.2,4.3V448.9z"/>
			</g>
			<g>
				<path fill="#4D8C56" d="M1192,490.4v-23.9c0-11.1-9-20.1-20.1-20.1h-6.8h-6.8c-11.1,0-20.1,9-20.1,20.1v23.9
					c-12,8.5-19.8,22.4-19.8,38.2c0,25.8,20.9,46.8,46.8,46.8s46.8-20.9,46.8-46.8C1211.9,512.8,1204,498.9,1192,490.4z
					 M1146.9,466.5c0-6.3,5.1-11.4,11.4-11.4h6.8h6.8c6.3,0,11.4,5.1,11.4,11.4v19c-5.6-2.4-11.7-3.7-18.2-3.7
					c-6.5,0-12.6,1.3-18.2,3.7V466.5z"/>
			</g>
		</g>
		<g>
			<path fill="#4D8C56" d="M1442.7,318.7v-6.4h-8.9v6.4h-3h-6.3v-6.4h-8.9v6.4h-3h-10.3v-6.4v-29.2v-0.8c0-1.4-1.1-2.5-2.5-2.5h-0.8
				h-28.7v-18.6c0-1.4-1.1-2.5-2.5-2.5h-29.5v-13.8h-31.9v73.7H1272v7.5v1.8H855v-1.8v-7.5h-34.6v-73.7h-31.9v13.8H759
				c-1.4,0-2.5,1.1-2.5,2.5v18.6h-28.7h-0.8c-1.4,0-2.5,1.1-2.5,2.5v36.4h-10.3h-3v-6.4h-8.9v6.4h-6.3h-3v-6.4h-8.9v6.4h-20.9v7.5
				v5.1v7.5v0.1v10.3h20.9v6.4h8.9v-6.4h3h6.3v6.4h8.9v-6.4h3h10.3v36.4c0,1.4,1.1,2.5,2.5,2.5h29.5v17.8v0.8c0,1.4,1.1,2.5,2.5,2.5
				h0.8h28.7V423h31.9v-73.7H855V340h417v9.3h34.6V423h31.9v-13.8h28.7h0.8c1.4,0,2.5-1.1,2.5-2.5v-18.6h29.5c1.4,0,2.5-1.1,2.5-2.5
				v-36.4h10.3h3v6.4h8.9v-6.4h6.3h3v6.4h8.9v-6.4h20.9V339v-0.1v-7.5v-5.1v-7.5H1442.7z"/>
		</g>
		<g>
			<rect x="868" y="318.7" fill="#4D8C56" width="21.1" height="308.9"/>
		</g>
		<g>
			<rect x="1238.8" y="318.7" fill="#4D8C56" width="21.1" height="308.9"/>
		</g>
		<g>
			<g id="XMLID_127_">
				<path fill="#62A76E" d="M148.3,561.8h-2.9v-7h-5.2v7h-2.9c-1.5,0-2.6,1.2-2.6,2.6v7.7H151v-7.7
					C151,562.9,149.8,561.8,148.3,561.8z"/>
			</g>
			<g id="XMLID_128_">
				<path fill="#62A76E" d="M148.3,561.8h-2.9v-7h-2.6v17.3h8.1v-7.7C151,562.9,149.8,561.8,148.3,561.8z"/>
			</g>
			<g id="XMLID_125_">
				<path fill="#62A76E" d="M167.7,598.5v-7.9c0-2.4-1-4.6-2.8-6.2l-3.7-3.2l-10.1-9.1h-8.1h-8.1l-10.1,9.1l-3.7,3.2
					c-1.8,1.5-2.8,3.8-2.8,6.2v7.9c0,6.2,1.8,12.4,5.6,17.3c3.3,4.1,3.3,9.9,0.2,14.1l-0.7,0.9c-3.4,4.5-5.2,10-5.2,15.7v44
					c0,9.6,7.8,17.3,17.3,17.3h7.5h7.5c9.6,0,17.3-7.8,17.3-17.3v-44c0-5.6-1.8-11.1-5.2-15.7l-0.7-0.9c-3.1-4.2-3-10,0.2-14.1
					C165.9,610.9,167.7,604.7,167.7,598.5z"/>
			</g>
		</g>
		<g id="XMLID_57_">
			<g id="XMLID_68_">
				<polygon fill="#62A76E" points="1217,808.5 1209,803.6 1207.1,802.4 1205.5,801.4 1200.6,798.4 1195.2,795 1189.8,791.7 
					1184.9,788.6 1183.3,787.7 1181.4,786.5 1173.4,781.6 1166.2,783.6 1159.9,793.9 1155.7,800.7 1149.3,811 1150.7,818.3 
					1158.7,823.3 1162.1,825.4 1162.7,825.8 1154.1,839.7 1141.9,859.4 1133.3,873.3 1132.8,872.9 1129.3,870.8 1121.3,865.8 
					1114.2,867.9 1107.8,878.2 1103.6,885 1097.2,895.3 1098.6,902.6 1106.6,907.6 1108.5,908.7 1110.1,909.7 1115,912.8 
					1120.4,916.1 1125.8,919.4 1130.8,922.5 1132.3,923.5 1134.2,924.6 1142.2,929.6 1149.4,927.5 1155.8,917.2 1159.9,910.4 
					1166.3,900.1 1165,892.8 1157,887.9 1153.5,885.7 1152.9,885.4 1161.5,871.5 1173.7,851.8 1182.3,837.9 1182.8,838.2 
					1186.3,840.4 1194.3,845.3 1201.4,843.2 1207.8,832.9 1212,826.1 1218.4,815.8 				"/>
			</g>
			<g id="XMLID_58_">
				<polygon fill="#62A76E" points="1311.2,911.9 1311.2,902.5 1311.2,900.2 1311.2,898.4 1311.2,892.5 1311.2,886.2 1311.2,879.9 
					1311.2,874.1 1311.2,872.2 1311.2,870 1311.2,860.6 1305.7,855.6 1293.5,855.6 1285.6,855.6 1273.4,855.6 1267.9,860.6 
					1267.9,870 1267.9,874.1 1267.9,874.7 1251.6,874.7 1228.4,874.7 1212.1,874.7 1212.1,874.1 1212.1,870 1212.1,860.6 
					1206.6,855.6 1194.5,855.6 1186.5,855.6 1174.4,855.6 1168.9,860.6 1168.9,870 1168.9,872.2 1168.9,874.1 1168.9,879.9 
					1168.9,886.2 1168.9,892.5 1168.9,898.4 1168.9,900.2 1168.9,902.5 1168.9,911.9 1174.4,916.9 1186.5,916.9 1194.5,916.9 
					1206.6,916.9 1212.1,911.9 1212.1,902.5 1212.1,898.4 1212.1,897.7 1228.4,897.7 1251.6,897.7 1267.9,897.7 1267.9,898.4 
					1267.9,902.5 1267.9,911.9 1273.4,916.9 1285.6,916.9 1293.5,916.9 1305.7,916.9 				"/>
			</g>
		</g>
		<g>
			<circle fill="#F1F2F2" cx="522.4" cy="151.7" r="58.6"/>
		</g>
		<g>
			<rect x="519.9" y="113.9" fill="#FBB040" width="5" height="75.6"/>
		</g>
	</g>
</g>
</svg>
